<?xml version="1.0" ?><!DOCTYPE svg  PUBLIC '-//W3C//DTD SVG 20010904//EN'  'http://www.w3.org/TR/2001/REC-SVG-20010904/DTD/svg10.dtd'><svg height="256.000000pt" preserveAspectRatio="xMidYMid meet" version="1.0" viewBox="0 0 256.000000 256.000000" width="256.000000pt" xmlns="http://www.w3.org/2000/svg"><g fill="#cacaca" stroke="none" transform="translate(0.000000,256.000000) scale(0.100000,-0.100000)"><path d="M1083 1477 c-1116 -1115 -1027 -1014 -977 -1115 29 -58 156 -193 227 -241 27 -18 66 -35 87 -38 l39 -6 278 271 c153 149 608 601 1011 1004 817 819 760 750 701 844 -41 63 -190 212 -253 253 -95 60 5 147 -1113 -972z m1080 852 c33 -17 146 -130 164 -163 8 -15 12 -38 9 -51 -3 -12 -427 -441 -941 -954 -794 -789 -940 -931 -964 -931 -64 0 -201 139 -201 203 l0 29 35 -26 c69 -53 113 -9 59 61 l-27 35 56 56 56 55 36 -27 c69 -53 113 -9 59 61 l-27 35 56 56 56 55 36 -27 c69 -53 113 -9 59 61 l-27 35 56 56 56 55 36 -27 c69 -53 113 -9 59 61 l-27 35 56 56 56 55 36 -27 c69 -53 113 -9 59 61 l-27 35 56 56 56 55 36 -27 c69 -53 113 -9 59 61 l-27 35 56 56 56 55 36 -27 c69 -53 113 -9 59 61 l-27 35 56 56 56 55 36 -27 c69 -53 113 -9 59 61 l-27 35 56 56 56 55 36 -27 c69 -53 113 -9 59 61 l-27 35 56 56 56 55 36 -27 c69 -53 113 -9 59 61 l-27 35 56 56 56 55 36 -27 c68 -52 113 -10 61 58 -33 44 -15 61 37 35z"/><path d="M439 481 c-33 -33 -35 -50 -14 -90 24 -48 81 -56 120 -16 40 40 30 96 -22 123 -34 18 -52 14 -84 -17z"/></g></svg>